G04 Layer: TopSilkLayer*
G04 EasyEDA v6.4.19.5, 2021-05-20T10:28:44+07:00*
G04 27e653f2f64e4e94b3cc02e3c5d75013,8de9fd2be1ea41df81dd73b3f080cf7e,10*
G04 Gerber Generator version 0.2*
G04 Scale: 100 percent, Rotated: No, Reflected: No *
G04 Dimensions in millimeters *
G04 leading zeros omitted , absolute positions ,4 integer and 5 decimal *
%FSLAX45Y45*%
%MOMM*%

%ADD10C,0.2540*%
%ADD17C,0.2032*%
%ADD18C,0.1524*%

%LPD*%
G36*
X12174728Y7264400D02*
G01*
X12174728Y7158228D01*
X12123877Y7207199D01*
X12111837Y7218324D01*
X12101068Y7227824D01*
X12091365Y7235799D01*
X12082526Y7242251D01*
X12074296Y7247381D01*
X12066524Y7251192D01*
X12058954Y7253782D01*
X12051436Y7255306D01*
X12047575Y7255662D01*
X12043664Y7255764D01*
X12037771Y7255560D01*
X12032132Y7254951D01*
X12026747Y7253884D01*
X12021667Y7252411D01*
X12016892Y7250480D01*
X12012422Y7248144D01*
X12008256Y7245350D01*
X12004497Y7242098D01*
X12001093Y7238339D01*
X11998045Y7234174D01*
X11995454Y7229500D01*
X11993321Y7224369D01*
X11991594Y7218730D01*
X11990324Y7212634D01*
X11989562Y7205980D01*
X11989308Y7198868D01*
X11989511Y7193178D01*
X11990019Y7187641D01*
X11990933Y7182205D01*
X11992203Y7176973D01*
X11993829Y7171944D01*
X11995810Y7167118D01*
X11998198Y7162546D01*
X12000890Y7158228D01*
X12003989Y7154265D01*
X12007392Y7150608D01*
X12011202Y7147306D01*
X12015368Y7144410D01*
X12019838Y7141972D01*
X12024715Y7139940D01*
X12029948Y7138416D01*
X12035536Y7137400D01*
X12039447Y7140092D01*
X12042444Y7143546D01*
X12044273Y7147559D01*
X12044934Y7152131D01*
X12043918Y7157567D01*
X12040616Y7162139D01*
X12034672Y7165898D01*
X12025630Y7168896D01*
X12003278Y7174992D01*
X12001804Y7184085D01*
X12001246Y7191502D01*
X12001601Y7197039D01*
X12002668Y7202220D01*
X12004395Y7206996D01*
X12006783Y7211415D01*
X12009729Y7215378D01*
X12013285Y7218883D01*
X12017349Y7221880D01*
X12021972Y7224420D01*
X12027052Y7226452D01*
X12032589Y7227874D01*
X12038584Y7228789D01*
X12044934Y7229094D01*
X12049556Y7228941D01*
X12054128Y7228433D01*
X12058700Y7227620D01*
X12063323Y7226452D01*
X12072670Y7223099D01*
X12077446Y7220915D01*
X12082322Y7218375D01*
X12092381Y7212228D01*
X12103049Y7204659D01*
X12114428Y7195667D01*
X12134697Y7178192D01*
X12179300Y7138670D01*
X12198350Y7138670D01*
X12198350Y7264400D01*
G37*
G36*
X12174728Y7110984D02*
G01*
X12174728Y7004812D01*
X12123877Y7053783D01*
X12111837Y7064908D01*
X12101068Y7074408D01*
X12091365Y7082383D01*
X12082526Y7088835D01*
X12074296Y7093966D01*
X12066524Y7097775D01*
X12058954Y7100366D01*
X12051436Y7101890D01*
X12047575Y7102246D01*
X12043664Y7102348D01*
X12037771Y7102144D01*
X12032132Y7101535D01*
X12026747Y7100468D01*
X12021667Y7098995D01*
X12016892Y7097064D01*
X12012422Y7094728D01*
X12008256Y7091934D01*
X12004497Y7088682D01*
X12001093Y7084923D01*
X11998045Y7080758D01*
X11995454Y7076084D01*
X11993321Y7070953D01*
X11991594Y7065314D01*
X11990324Y7059218D01*
X11989562Y7052564D01*
X11989308Y7045452D01*
X11989511Y7039762D01*
X11990019Y7034225D01*
X11990933Y7028789D01*
X11992203Y7023557D01*
X11993829Y7018528D01*
X11995810Y7013702D01*
X11998198Y7009130D01*
X12000890Y7004812D01*
X12003989Y7000849D01*
X12007392Y6997192D01*
X12011202Y6993890D01*
X12015368Y6990994D01*
X12019838Y6988556D01*
X12024715Y6986524D01*
X12029948Y6985000D01*
X12035536Y6983984D01*
X12039447Y6986676D01*
X12042444Y6990130D01*
X12044273Y6994144D01*
X12044934Y6998716D01*
X12043918Y7004151D01*
X12040616Y7008723D01*
X12034672Y7012482D01*
X12025630Y7015480D01*
X12003278Y7021575D01*
X12001804Y7030669D01*
X12001246Y7038086D01*
X12001601Y7043674D01*
X12002668Y7048906D01*
X12004395Y7053732D01*
X12006783Y7058101D01*
X12009729Y7062063D01*
X12013285Y7065568D01*
X12017349Y7068566D01*
X12021972Y7071055D01*
X12027052Y7073036D01*
X12032589Y7074509D01*
X12038584Y7075373D01*
X12044934Y7075678D01*
X12049556Y7075525D01*
X12054128Y7075017D01*
X12058700Y7074204D01*
X12063323Y7073036D01*
X12072670Y7069683D01*
X12077446Y7067499D01*
X12082322Y7064959D01*
X12092381Y7058812D01*
X12103049Y7051243D01*
X12114428Y7042251D01*
X12134697Y7024776D01*
X12179300Y6985253D01*
X12198350Y6985253D01*
X12198350Y7110984D01*
G37*
G36*
X12135104Y6957059D02*
G01*
X12129109Y6956856D01*
X12123369Y6956247D01*
X12117882Y6955281D01*
X12112701Y6953961D01*
X12107824Y6952234D01*
X12103201Y6950151D01*
X12098832Y6947763D01*
X12094819Y6945020D01*
X12091060Y6941972D01*
X12087656Y6938619D01*
X12084507Y6934962D01*
X12081662Y6930999D01*
X12079173Y6926783D01*
X12076988Y6922262D01*
X12075109Y6917537D01*
X12073585Y6912508D01*
X12072416Y6907275D01*
X12071553Y6901840D01*
X12070994Y6896150D01*
X12070842Y6890258D01*
X12071146Y6882130D01*
X12071959Y6874408D01*
X12073432Y6866839D01*
X12075414Y6859270D01*
X12017502Y6863334D01*
X12017502Y6951472D01*
X11993626Y6951472D01*
X11993626Y6851650D01*
X12089130Y6845046D01*
X12091416Y6852920D01*
X12089587Y6860336D01*
X12088317Y6867753D01*
X12087606Y6875119D01*
X12087352Y6882384D01*
X12087707Y6889445D01*
X12088825Y6896100D01*
X12090654Y6902196D01*
X12093244Y6907834D01*
X12096445Y6912864D01*
X12100407Y6917334D01*
X12105030Y6921195D01*
X12110262Y6924446D01*
X12116155Y6926986D01*
X12122708Y6928866D01*
X12129871Y6929983D01*
X12137644Y6930390D01*
X12145467Y6930034D01*
X12152782Y6929018D01*
X12159488Y6927342D01*
X12165685Y6925005D01*
X12171222Y6922008D01*
X12176150Y6918401D01*
X12180417Y6914134D01*
X12183922Y6909257D01*
X12186767Y6903821D01*
X12188799Y6897776D01*
X12190069Y6891121D01*
X12190476Y6883908D01*
X12190323Y6879031D01*
X12189815Y6874256D01*
X12188952Y6869480D01*
X12187682Y6864603D01*
X12160046Y6856730D01*
X12154103Y6853377D01*
X12151004Y6849059D01*
X12150090Y6843268D01*
X12150699Y6838442D01*
X12152528Y6834276D01*
X12155576Y6830923D01*
X12159742Y6828536D01*
X12166498Y6830415D01*
X12172696Y6832803D01*
X12178284Y6835800D01*
X12183262Y6839305D01*
X12187682Y6843318D01*
X12191542Y6847890D01*
X12194794Y6852920D01*
X12197435Y6858508D01*
X12199518Y6864553D01*
X12200991Y6871157D01*
X12201855Y6878167D01*
X12202160Y6885686D01*
X12201956Y6892036D01*
X12201347Y6898182D01*
X12200382Y6904075D01*
X12199061Y6909714D01*
X12197334Y6915048D01*
X12195251Y6920128D01*
X12192863Y6924954D01*
X12190120Y6929475D01*
X12187072Y6933692D01*
X12183668Y6937552D01*
X12180011Y6941159D01*
X12176048Y6944359D01*
X12171781Y6947255D01*
X12167311Y6949795D01*
X12162536Y6951980D01*
X12157506Y6953758D01*
X12152223Y6955180D01*
X12146737Y6956247D01*
X12141047Y6956856D01*
G37*
G36*
X12142978Y6804152D02*
G01*
X12142978Y6787388D01*
X12181840Y6779768D01*
X12185396Y6770928D01*
X12187732Y6762038D01*
X12189053Y6753148D01*
X12189460Y6744462D01*
X12189307Y6739077D01*
X12188799Y6733844D01*
X12187936Y6728714D01*
X12186767Y6723786D01*
X12185243Y6719011D01*
X12183414Y6714388D01*
X12181281Y6709968D01*
X12178741Y6705752D01*
X12175947Y6701739D01*
X12172797Y6697878D01*
X12169343Y6694271D01*
X12165533Y6690868D01*
X12161469Y6687718D01*
X12157049Y6684772D01*
X12152274Y6682079D01*
X12147245Y6679641D01*
X12141860Y6677456D01*
X12136221Y6675526D01*
X12130227Y6673900D01*
X12123928Y6672529D01*
X12117324Y6671462D01*
X12110415Y6670649D01*
X12103252Y6670192D01*
X12095734Y6670040D01*
X12088266Y6670192D01*
X12081154Y6670700D01*
X12074296Y6671564D01*
X12067743Y6672732D01*
X12061494Y6674205D01*
X12055500Y6675932D01*
X12049861Y6677964D01*
X12044527Y6680301D01*
X12039498Y6682892D01*
X12034774Y6685686D01*
X12030354Y6688785D01*
X12026239Y6692087D01*
X12022429Y6695592D01*
X12018975Y6699300D01*
X12015825Y6703263D01*
X12012980Y6707378D01*
X12010491Y6711645D01*
X12008307Y6716115D01*
X12006478Y6720738D01*
X12004954Y6725462D01*
X12003786Y6730390D01*
X12002922Y6735368D01*
X12002414Y6740499D01*
X12002262Y6745731D01*
X12002719Y6753402D01*
X12004040Y6761175D01*
X12006326Y6768998D01*
X12009628Y6776974D01*
X12048744Y6784594D01*
X12048744Y6801358D01*
X12003786Y6800596D01*
X11999772Y6793077D01*
X11996521Y6785508D01*
X11993930Y6777990D01*
X11991898Y6770522D01*
X11990476Y6763207D01*
X11989511Y6755993D01*
X11988952Y6748983D01*
X11988800Y6742175D01*
X11988952Y6735825D01*
X11989460Y6729628D01*
X11990273Y6723583D01*
X11991441Y6717639D01*
X11992914Y6711848D01*
X11994642Y6706209D01*
X11996724Y6700774D01*
X11999061Y6695490D01*
X12001703Y6690359D01*
X12004598Y6685483D01*
X12007799Y6680758D01*
X12011202Y6676237D01*
X12014911Y6671919D01*
X12018822Y6667855D01*
X12022988Y6663994D01*
X12027408Y6660388D01*
X12032030Y6657035D01*
X12036907Y6653885D01*
X12041936Y6651040D01*
X12047220Y6648450D01*
X12052655Y6646113D01*
X12058294Y6644081D01*
X12064136Y6642353D01*
X12070130Y6640931D01*
X12076328Y6639763D01*
X12082627Y6638950D01*
X12089130Y6638442D01*
X12095734Y6638290D01*
X12102490Y6638442D01*
X12109094Y6638950D01*
X12115495Y6639712D01*
X12121743Y6640830D01*
X12127788Y6642201D01*
X12133681Y6643878D01*
X12139371Y6645859D01*
X12144857Y6648094D01*
X12150140Y6650583D01*
X12155220Y6653377D01*
X12160046Y6656425D01*
X12164669Y6659727D01*
X12169089Y6663283D01*
X12173254Y6667093D01*
X12177166Y6671106D01*
X12180824Y6675374D01*
X12184227Y6679844D01*
X12187377Y6684568D01*
X12190222Y6689496D01*
X12192812Y6694576D01*
X12195149Y6699910D01*
X12197181Y6705396D01*
X12198908Y6711086D01*
X12200331Y6716979D01*
X12201448Y6723024D01*
X12202261Y6729272D01*
X12202769Y6735622D01*
X12202820Y6747611D01*
X12202058Y6758330D01*
X12200432Y6768795D01*
X12197994Y6779006D01*
X12196470Y6784035D01*
X12194692Y6788962D01*
X12190425Y6798665D01*
X12187936Y6803390D01*
G37*
G36*
X12187682Y6624828D02*
G01*
X12185396Y6601206D01*
X12137390Y6586981D01*
X12129211Y6584137D01*
X12122099Y6580987D01*
X12116054Y6577380D01*
X12110923Y6573266D01*
X12106757Y6568592D01*
X12103354Y6563258D01*
X12100712Y6557213D01*
X12098782Y6550406D01*
X12096953Y6558737D01*
X12094514Y6566408D01*
X12091517Y6573316D01*
X12088012Y6579514D01*
X12084050Y6585000D01*
X12079681Y6589725D01*
X12074906Y6593789D01*
X12069826Y6597091D01*
X12064492Y6599681D01*
X12058904Y6601510D01*
X12053112Y6602628D01*
X12047220Y6602984D01*
X12041073Y6602679D01*
X12035231Y6601714D01*
X12029744Y6600139D01*
X12024614Y6597954D01*
X12019838Y6595211D01*
X12015419Y6591858D01*
X12011406Y6587947D01*
X12007748Y6583476D01*
X12004497Y6578447D01*
X12001652Y6572859D01*
X11999264Y6566814D01*
X11997232Y6560210D01*
X11995658Y6553149D01*
X11994540Y6545580D01*
X11993880Y6537553D01*
X11993626Y6529070D01*
X11993626Y6500876D01*
X12005564Y6500876D01*
X12005564Y6527546D01*
X12005868Y6535166D01*
X12006783Y6542125D01*
X12008307Y6548323D01*
X12010440Y6553809D01*
X12013133Y6558635D01*
X12016384Y6562801D01*
X12020143Y6566255D01*
X12024512Y6569100D01*
X12029338Y6571284D01*
X12034723Y6572808D01*
X12040616Y6573723D01*
X12046966Y6574028D01*
X12053163Y6573672D01*
X12059056Y6572656D01*
X12064593Y6570980D01*
X12069724Y6568592D01*
X12074398Y6565544D01*
X12078563Y6561836D01*
X12082272Y6557416D01*
X12085370Y6552336D01*
X12087809Y6546596D01*
X12089638Y6540144D01*
X12090755Y6533032D01*
X12091162Y6525259D01*
X12091162Y6500368D01*
X12039650Y6500469D01*
X11993626Y6500876D01*
X11993626Y6443218D01*
X12004040Y6443218D01*
X12007342Y6471920D01*
X12034164Y6472275D01*
X12130887Y6472428D01*
X12184634Y6471920D01*
X12187682Y6443218D01*
X12198350Y6443218D01*
X12198350Y6529324D01*
X12187682Y6529324D01*
X12184380Y6500876D01*
X12144451Y6500418D01*
X12102846Y6500368D01*
X12102846Y6516624D01*
X12103150Y6525463D01*
X12104116Y6532930D01*
X12105944Y6539280D01*
X12108738Y6544614D01*
X12112752Y6548983D01*
X12118086Y6552641D01*
X12124893Y6555689D01*
X12133326Y6558280D01*
X12181840Y6570725D01*
X12186767Y6572199D01*
X12190882Y6574281D01*
X12194286Y6576974D01*
X12196978Y6580327D01*
X12198959Y6584391D01*
X12200331Y6589318D01*
X12201144Y6595059D01*
X12201398Y6601714D01*
X12201194Y6608572D01*
X12200636Y6614718D01*
X12199670Y6620103D01*
X12198350Y6624828D01*
G37*
G36*
X12112498Y6345936D02*
G01*
X12112498Y6274562D01*
X12130532Y6274562D01*
X12130532Y6345936D01*
G37*
G36*
X12095988Y6176264D02*
G01*
X12089028Y6176111D01*
X12082322Y6175654D01*
X12075871Y6174892D01*
X12069622Y6173876D01*
X12063577Y6172555D01*
X12057786Y6170980D01*
X12052249Y6169101D01*
X12046915Y6166967D01*
X12041835Y6164580D01*
X12037009Y6161938D01*
X12028068Y6155893D01*
X12024004Y6152489D01*
X12020143Y6148882D01*
X12016536Y6145022D01*
X12013184Y6140958D01*
X12007291Y6132169D01*
X12004700Y6127445D01*
X12002414Y6122517D01*
X12000382Y6117437D01*
X11998604Y6112154D01*
X11997080Y6106668D01*
X11995861Y6101029D01*
X11994896Y6095187D01*
X11994184Y6089192D01*
X11993778Y6082995D01*
X11993626Y6045200D01*
X12005564Y6045200D01*
X12005716Y6077305D01*
X12006224Y6082792D01*
X12007037Y6088075D01*
X12008154Y6093155D01*
X12009628Y6097981D01*
X12011406Y6102553D01*
X12013488Y6106972D01*
X12015927Y6111087D01*
X12018619Y6115050D01*
X12021667Y6118707D01*
X12025020Y6122162D01*
X12028678Y6125362D01*
X12032640Y6128359D01*
X12036907Y6131052D01*
X12041479Y6133541D01*
X12046356Y6135776D01*
X12051538Y6137706D01*
X12056973Y6139434D01*
X12062764Y6140907D01*
X12068810Y6142126D01*
X12075160Y6143040D01*
X12081814Y6143701D01*
X12088774Y6144107D01*
X12095988Y6144260D01*
X12102998Y6144107D01*
X12109704Y6143701D01*
X12116206Y6143040D01*
X12128398Y6140907D01*
X12134088Y6139434D01*
X12139523Y6137656D01*
X12144654Y6135674D01*
X12149531Y6133388D01*
X12154103Y6130899D01*
X12158421Y6128105D01*
X12162434Y6125057D01*
X12166142Y6121806D01*
X12169546Y6118250D01*
X12172645Y6114491D01*
X12175439Y6110427D01*
X12177928Y6106160D01*
X12180062Y6101588D01*
X12181890Y6096812D01*
X12183414Y6091834D01*
X12184634Y6086551D01*
X12185446Y6081064D01*
X12186005Y6075324D01*
X12186158Y6045200D01*
X12129617Y6044692D01*
X12026087Y6044895D01*
X11993626Y6045200D01*
X11993626Y5987542D01*
X12004040Y5987542D01*
X12007342Y6016244D01*
X12054636Y6016701D01*
X12143689Y6016701D01*
X12184634Y6016244D01*
X12187682Y5987542D01*
X12198350Y5987542D01*
X12198350Y6071108D01*
X12198197Y6077559D01*
X12197791Y6083909D01*
X12197080Y6090107D01*
X12196114Y6096152D01*
X12194895Y6101994D01*
X12193371Y6107734D01*
X12191593Y6113272D01*
X12189561Y6118606D01*
X12187275Y6123787D01*
X12184684Y6128766D01*
X12181840Y6133541D01*
X12178792Y6138113D01*
X12175439Y6142431D01*
X12171832Y6146546D01*
X12167971Y6150406D01*
X12163907Y6154064D01*
X12159538Y6157468D01*
X12154966Y6160617D01*
X12150140Y6163462D01*
X12145060Y6166104D01*
X12139726Y6168390D01*
X12134189Y6170422D01*
X12128398Y6172200D01*
X12122353Y6173622D01*
X12116104Y6174790D01*
X12109653Y6175603D01*
X12102947Y6176111D01*
G37*
G36*
X11993626Y5960364D02*
G01*
X11993626Y5874258D01*
X12004040Y5874258D01*
X12007342Y5902706D01*
X12034164Y5903061D01*
X12130887Y5903214D01*
X12184634Y5902706D01*
X12187682Y5874258D01*
X12198350Y5874258D01*
X12198350Y5960364D01*
X12187682Y5960364D01*
X12184380Y5931662D01*
X12150750Y5931255D01*
X12061240Y5931154D01*
X12007342Y5931662D01*
X12004040Y5960364D01*
G37*
G36*
X12047474Y5853430D02*
G01*
X11993626Y5851906D01*
X11993626Y5699760D01*
X12004040Y5699760D01*
X12007342Y5728462D01*
X12034164Y5728817D01*
X12130887Y5728970D01*
X12184634Y5728462D01*
X12187682Y5699760D01*
X12198350Y5699760D01*
X12198350Y5786374D01*
X12187682Y5786374D01*
X12184380Y5757418D01*
X12136475Y5756960D01*
X12100306Y5756910D01*
X12100306Y5805170D01*
X12132056Y5808980D01*
X12132056Y5821934D01*
X12057888Y5821934D01*
X12057888Y5808980D01*
X12088114Y5805170D01*
X12088114Y5756910D01*
X12027001Y5757113D01*
X12007088Y5757418D01*
X12007088Y5830316D01*
X12047474Y5838444D01*
G37*
G36*
X12187682Y5681980D02*
G01*
X12185396Y5658104D01*
X12137390Y5643880D01*
X12129211Y5641136D01*
X12122099Y5637987D01*
X12116054Y5634380D01*
X12110923Y5630265D01*
X12106757Y5625541D01*
X12103354Y5620207D01*
X12100712Y5614162D01*
X12098782Y5607304D01*
X12096953Y5615686D01*
X12094514Y5623356D01*
X12091517Y5630316D01*
X12088012Y5636514D01*
X12084050Y5642000D01*
X12079681Y5646724D01*
X12074906Y5650738D01*
X12069826Y5654040D01*
X12064492Y5656580D01*
X12058904Y5658408D01*
X12053112Y5659526D01*
X12047220Y5659882D01*
X12041073Y5659577D01*
X12035231Y5658612D01*
X12029744Y5657037D01*
X12024614Y5654852D01*
X12019838Y5652109D01*
X12015419Y5648756D01*
X12011406Y5644845D01*
X12007748Y5640374D01*
X12004497Y5635396D01*
X12001652Y5629859D01*
X11999264Y5623814D01*
X11997232Y5617210D01*
X11995658Y5610199D01*
X11994540Y5602681D01*
X11993880Y5594654D01*
X11993626Y5586222D01*
X11993626Y5558028D01*
X12005564Y5558028D01*
X12005564Y5584444D01*
X12005868Y5592064D01*
X12006783Y5599023D01*
X12008307Y5605272D01*
X12010440Y5610809D01*
X12013133Y5615635D01*
X12016384Y5619800D01*
X12020143Y5623306D01*
X12024512Y5626150D01*
X12029338Y5628386D01*
X12034723Y5629960D01*
X12040616Y5630875D01*
X12046966Y5631180D01*
X12053163Y5630824D01*
X12059056Y5629808D01*
X12064593Y5628132D01*
X12069724Y5625744D01*
X12074398Y5622696D01*
X12078563Y5618937D01*
X12082272Y5614517D01*
X12085370Y5609437D01*
X12087809Y5603646D01*
X12089638Y5597144D01*
X12090755Y5589981D01*
X12091162Y5582158D01*
X12091162Y5557266D01*
X12046661Y5557367D01*
X12005564Y5558028D01*
X11993626Y5558028D01*
X11993626Y5500370D01*
X12004040Y5500370D01*
X12007342Y5528818D01*
X12034164Y5529173D01*
X12130887Y5529326D01*
X12184634Y5528818D01*
X12187682Y5500370D01*
X12198350Y5500370D01*
X12198350Y5586476D01*
X12187682Y5586476D01*
X12184380Y5558028D01*
X12151207Y5557418D01*
X12102846Y5557266D01*
X12102846Y5573522D01*
X12103150Y5582361D01*
X12104116Y5589879D01*
X12105944Y5596280D01*
X12108738Y5601563D01*
X12112752Y5606034D01*
X12118086Y5609691D01*
X12124893Y5612688D01*
X12133326Y5615178D01*
X12181840Y5627878D01*
X12186767Y5629351D01*
X12190882Y5631434D01*
X12194286Y5634126D01*
X12196978Y5637479D01*
X12198959Y5641543D01*
X12200331Y5646470D01*
X12201144Y5652211D01*
X12201398Y5658866D01*
X12201194Y5665622D01*
X12200636Y5671769D01*
X12199670Y5677204D01*
X12198350Y5681980D01*
G37*
D17*
X6667500Y7352537D02*
G01*
X6703822Y7257034D01*
X6740143Y7352537D02*
G01*
X6703822Y7257034D01*
X6838441Y7329931D02*
G01*
X6833870Y7339076D01*
X6824725Y7347965D01*
X6815581Y7352537D01*
X6797547Y7352537D01*
X6788404Y7347965D01*
X6779259Y7339076D01*
X6774688Y7329931D01*
X6770115Y7316215D01*
X6770115Y7293610D01*
X6774688Y7279894D01*
X6779259Y7270750D01*
X6788404Y7261605D01*
X6797547Y7257034D01*
X6815581Y7257034D01*
X6824725Y7261605D01*
X6833870Y7270750D01*
X6838441Y7279894D01*
X6936486Y7329931D02*
G01*
X6932168Y7339076D01*
X6923024Y7347965D01*
X6913879Y7352537D01*
X6895591Y7352537D01*
X6886702Y7347965D01*
X6877558Y7339076D01*
X6872986Y7329931D01*
X6868413Y7316215D01*
X6868413Y7293610D01*
X6872986Y7279894D01*
X6877558Y7270750D01*
X6886702Y7261605D01*
X6895591Y7257034D01*
X6913879Y7257034D01*
X6923024Y7261605D01*
X6932168Y7270750D01*
X6936486Y7279894D01*
X6654800Y7098537D02*
G01*
X6654800Y7003034D01*
X6654800Y7098537D02*
G01*
X6695693Y7098537D01*
X6709409Y7093965D01*
X6713981Y7089394D01*
X6718554Y7080504D01*
X6718554Y7071360D01*
X6713981Y7062215D01*
X6709409Y7057644D01*
X6695693Y7053071D01*
X6654800Y7053071D01*
X6686550Y7053071D02*
G01*
X6718554Y7003034D01*
X6812025Y7085076D02*
G01*
X6802881Y7093965D01*
X6789420Y7098537D01*
X6771131Y7098537D01*
X6757415Y7093965D01*
X6748525Y7085076D01*
X6748525Y7075931D01*
X6753097Y7066787D01*
X6757415Y7062215D01*
X6766559Y7057644D01*
X6793991Y7048500D01*
X6802881Y7044181D01*
X6807454Y7039610D01*
X6812025Y7030465D01*
X6812025Y7016750D01*
X6802881Y7007605D01*
X6789420Y7003034D01*
X6771131Y7003034D01*
X6757415Y7007605D01*
X6748525Y7016750D01*
X6874002Y7098537D02*
G01*
X6874002Y7003034D01*
X6841997Y7098537D02*
G01*
X6905752Y7098537D01*
X6722872Y6821931D02*
G01*
X6718554Y6831076D01*
X6709409Y6839965D01*
X6700265Y6844537D01*
X6681977Y6844537D01*
X6673088Y6839965D01*
X6663943Y6831076D01*
X6659372Y6821931D01*
X6654800Y6808215D01*
X6654800Y6785610D01*
X6659372Y6771894D01*
X6663943Y6762750D01*
X6673088Y6753605D01*
X6681977Y6749034D01*
X6700265Y6749034D01*
X6709409Y6753605D01*
X6718554Y6762750D01*
X6722872Y6771894D01*
X6722872Y6785610D01*
X6700265Y6785610D02*
G01*
X6722872Y6785610D01*
X6753097Y6844537D02*
G01*
X6753097Y6749034D01*
X6753097Y6844537D02*
G01*
X6816597Y6749034D01*
X6816597Y6844537D02*
G01*
X6816597Y6749034D01*
X6846570Y6844537D02*
G01*
X6846570Y6749034D01*
X6846570Y6844537D02*
G01*
X6878320Y6844537D01*
X6892036Y6839965D01*
X6901179Y6831076D01*
X6905752Y6821931D01*
X6910324Y6808215D01*
X6910324Y6785610D01*
X6905752Y6771894D01*
X6901179Y6762750D01*
X6892036Y6753605D01*
X6878320Y6749034D01*
X6846570Y6749034D01*
X6642100Y6603237D02*
G01*
X6642100Y6507734D01*
X6642100Y6603237D02*
G01*
X6678422Y6507734D01*
X6714743Y6603237D02*
G01*
X6678422Y6507734D01*
X6714743Y6603237D02*
G01*
X6714743Y6507734D01*
X6744715Y6603237D02*
G01*
X6744715Y6507734D01*
X6838441Y6589776D02*
G01*
X6829297Y6598665D01*
X6815836Y6603237D01*
X6797547Y6603237D01*
X6783831Y6598665D01*
X6774941Y6589776D01*
X6774941Y6580631D01*
X6779259Y6571487D01*
X6783831Y6566915D01*
X6792975Y6562344D01*
X6820408Y6553200D01*
X6829297Y6548881D01*
X6833870Y6544310D01*
X6838441Y6535165D01*
X6838441Y6521450D01*
X6829297Y6512305D01*
X6815836Y6507734D01*
X6797547Y6507734D01*
X6783831Y6512305D01*
X6774941Y6521450D01*
X6895845Y6603237D02*
G01*
X6886702Y6598665D01*
X6877558Y6589776D01*
X6872986Y6580631D01*
X6868413Y6566915D01*
X6868413Y6544310D01*
X6872986Y6530594D01*
X6877558Y6521450D01*
X6886702Y6512305D01*
X6895845Y6507734D01*
X6913879Y6507734D01*
X6923024Y6512305D01*
X6932168Y6521450D01*
X6936740Y6530594D01*
X6941311Y6544310D01*
X6941311Y6566915D01*
X6936740Y6580631D01*
X6932168Y6589776D01*
X6923024Y6598665D01*
X6913879Y6603237D01*
X6895845Y6603237D01*
X6654800Y6349237D02*
G01*
X6654800Y6253734D01*
X6654800Y6349237D02*
G01*
X6691122Y6253734D01*
X6727443Y6349237D02*
G01*
X6691122Y6253734D01*
X6727443Y6349237D02*
G01*
X6727443Y6253734D01*
X6784847Y6349237D02*
G01*
X6775704Y6344665D01*
X6766559Y6335776D01*
X6761988Y6326631D01*
X6757415Y6312915D01*
X6757415Y6290310D01*
X6761988Y6276594D01*
X6766559Y6267450D01*
X6775704Y6258305D01*
X6784847Y6253734D01*
X6802881Y6253734D01*
X6812025Y6258305D01*
X6821170Y6267450D01*
X6825741Y6276594D01*
X6830313Y6290310D01*
X6830313Y6312915D01*
X6825741Y6326631D01*
X6821170Y6335776D01*
X6812025Y6344665D01*
X6802881Y6349237D01*
X6784847Y6349237D01*
X6923786Y6335776D02*
G01*
X6914895Y6344665D01*
X6901179Y6349237D01*
X6882891Y6349237D01*
X6869429Y6344665D01*
X6860286Y6335776D01*
X6860286Y6326631D01*
X6864858Y6317487D01*
X6869429Y6312915D01*
X6878320Y6308344D01*
X6905752Y6299200D01*
X6914895Y6294881D01*
X6919468Y6290310D01*
X6923786Y6281165D01*
X6923786Y6267450D01*
X6914895Y6258305D01*
X6901179Y6253734D01*
X6882891Y6253734D01*
X6869429Y6258305D01*
X6860286Y6267450D01*
X6954011Y6349237D02*
G01*
X6954011Y6253734D01*
X6731254Y6094476D02*
G01*
X6722109Y6103365D01*
X6708393Y6107937D01*
X6690106Y6107937D01*
X6676643Y6103365D01*
X6667500Y6094476D01*
X6667500Y6085331D01*
X6672072Y6076187D01*
X6676643Y6071615D01*
X6685788Y6067044D01*
X6712965Y6057900D01*
X6722109Y6053581D01*
X6726681Y6049010D01*
X6731254Y6039865D01*
X6731254Y6026150D01*
X6722109Y6017005D01*
X6708393Y6012434D01*
X6690106Y6012434D01*
X6676643Y6017005D01*
X6667500Y6026150D01*
X6829297Y6085331D02*
G01*
X6824725Y6094476D01*
X6815581Y6103365D01*
X6806691Y6107937D01*
X6788404Y6107937D01*
X6779259Y6103365D01*
X6770115Y6094476D01*
X6765797Y6085331D01*
X6761225Y6071615D01*
X6761225Y6049010D01*
X6765797Y6035294D01*
X6770115Y6026150D01*
X6779259Y6017005D01*
X6788404Y6012434D01*
X6806691Y6012434D01*
X6815581Y6017005D01*
X6824725Y6026150D01*
X6829297Y6035294D01*
X6859270Y6107937D02*
G01*
X6859270Y6012434D01*
X6923024Y6107937D02*
G01*
X6859270Y6044437D01*
X6882129Y6067044D02*
G01*
X6923024Y6012434D01*
X6654800Y5841237D02*
G01*
X6654800Y5745734D01*
X6654800Y5841237D02*
G01*
X6718554Y5745734D01*
X6718554Y5841237D02*
G01*
X6718554Y5745734D01*
X6812025Y5827776D02*
G01*
X6802881Y5836665D01*
X6789420Y5841237D01*
X6771131Y5841237D01*
X6757415Y5836665D01*
X6748525Y5827776D01*
X6748525Y5818631D01*
X6753097Y5809487D01*
X6757415Y5804915D01*
X6766559Y5800344D01*
X6793991Y5791200D01*
X6802881Y5786881D01*
X6807454Y5782310D01*
X6812025Y5773165D01*
X6812025Y5759450D01*
X6802881Y5750305D01*
X6789420Y5745734D01*
X6771131Y5745734D01*
X6757415Y5750305D01*
X6748525Y5759450D01*
X6905752Y5827776D02*
G01*
X6896608Y5836665D01*
X6882891Y5841237D01*
X6864858Y5841237D01*
X6851141Y5836665D01*
X6841997Y5827776D01*
X6841997Y5818631D01*
X6846570Y5809487D01*
X6851141Y5804915D01*
X6860286Y5800344D01*
X6887463Y5791200D01*
X6896608Y5786881D01*
X6901179Y5782310D01*
X6905752Y5773165D01*
X6905752Y5759450D01*
X6896608Y5750305D01*
X6882891Y5745734D01*
X6864858Y5745734D01*
X6851141Y5750305D01*
X6841997Y5759450D01*
X6667500Y5587237D02*
G01*
X6667500Y5491734D01*
X6697472Y5587237D02*
G01*
X6697472Y5491734D01*
X6697472Y5587237D02*
G01*
X6738365Y5587237D01*
X6752081Y5582665D01*
X6756654Y5578094D01*
X6761225Y5569204D01*
X6761225Y5560060D01*
X6756654Y5550915D01*
X6752081Y5546344D01*
X6738365Y5541771D01*
X6697472Y5541771D01*
X6729222Y5541771D02*
G01*
X6761225Y5491734D01*
X6818375Y5587237D02*
G01*
X6809231Y5582665D01*
X6800341Y5573776D01*
X6795770Y5564631D01*
X6791197Y5550915D01*
X6791197Y5528310D01*
X6795770Y5514594D01*
X6800341Y5505450D01*
X6809231Y5496305D01*
X6818375Y5491734D01*
X6836663Y5491734D01*
X6845808Y5496305D01*
X6854697Y5505450D01*
X6859270Y5514594D01*
X6863841Y5528310D01*
X6863841Y5550915D01*
X6859270Y5564631D01*
X6854697Y5573776D01*
X6845808Y5582665D01*
X6836663Y5587237D01*
X6818375Y5587237D01*
X6832091Y5510021D02*
G01*
X6859270Y5482844D01*
X1358900Y7619237D02*
G01*
X1358900Y7523734D01*
X1358900Y7619237D02*
G01*
X1399794Y7619237D01*
X1413510Y7614665D01*
X1418081Y7610094D01*
X1422654Y7601204D01*
X1422654Y7592060D01*
X1418081Y7582915D01*
X1413510Y7578344D01*
X1399794Y7573771D01*
X1358900Y7573771D01*
X1390650Y7573771D02*
G01*
X1422654Y7523734D01*
X1516126Y7605776D02*
G01*
X1506981Y7614665D01*
X1493520Y7619237D01*
X1475231Y7619237D01*
X1461515Y7614665D01*
X1452626Y7605776D01*
X1452626Y7596631D01*
X1457197Y7587487D01*
X1461515Y7582915D01*
X1470660Y7578344D01*
X1498092Y7569200D01*
X1506981Y7564881D01*
X1511554Y7560310D01*
X1516126Y7551165D01*
X1516126Y7537450D01*
X1506981Y7528305D01*
X1493520Y7523734D01*
X1475231Y7523734D01*
X1461515Y7528305D01*
X1452626Y7537450D01*
X1578102Y7619237D02*
G01*
X1578102Y7523734D01*
X1546097Y7619237D02*
G01*
X1609852Y7619237D01*
X1368044Y7352537D02*
G01*
X1418081Y7352537D01*
X1390650Y7316215D01*
X1404365Y7316215D01*
X1413510Y7311644D01*
X1418081Y7307071D01*
X1422654Y7293610D01*
X1422654Y7284465D01*
X1418081Y7270750D01*
X1408937Y7261605D01*
X1395221Y7257034D01*
X1381505Y7257034D01*
X1368044Y7261605D01*
X1363471Y7266178D01*
X1358900Y7275321D01*
X1457197Y7279894D02*
G01*
X1452626Y7275321D01*
X1457197Y7270750D01*
X1461515Y7275321D01*
X1457197Y7279894D01*
X1500631Y7352537D02*
G01*
X1550670Y7352537D01*
X1523492Y7316215D01*
X1537207Y7316215D01*
X1546097Y7311644D01*
X1550670Y7307071D01*
X1555242Y7293610D01*
X1555242Y7284465D01*
X1550670Y7270750D01*
X1541526Y7261605D01*
X1528063Y7257034D01*
X1514347Y7257034D01*
X1500631Y7261605D01*
X1496060Y7266178D01*
X1491742Y7275321D01*
X1585213Y7352537D02*
G01*
X1621536Y7257034D01*
X1658112Y7352537D02*
G01*
X1621536Y7257034D01*
X1371600Y7085837D02*
G01*
X1371600Y6990334D01*
X1371600Y7085837D02*
G01*
X1407921Y6990334D01*
X1444244Y7085837D02*
G01*
X1407921Y6990334D01*
X1444244Y7085837D02*
G01*
X1444244Y6990334D01*
X1474215Y7085837D02*
G01*
X1474215Y6990334D01*
X1474215Y7085837D02*
G01*
X1506220Y7085837D01*
X1519681Y7081265D01*
X1528826Y7072376D01*
X1533397Y7063231D01*
X1537970Y7049515D01*
X1537970Y7026910D01*
X1533397Y7013194D01*
X1528826Y7004050D01*
X1519681Y6994905D01*
X1506220Y6990334D01*
X1474215Y6990334D01*
X1414271Y6821931D02*
G01*
X1409954Y6831076D01*
X1400810Y6839965D01*
X1391665Y6844537D01*
X1373378Y6844537D01*
X1364487Y6839965D01*
X1355344Y6831076D01*
X1350771Y6821931D01*
X1346200Y6808215D01*
X1346200Y6785610D01*
X1350771Y6771894D01*
X1355344Y6762750D01*
X1364487Y6753605D01*
X1373378Y6749034D01*
X1391665Y6749034D01*
X1400810Y6753605D01*
X1409954Y6762750D01*
X1414271Y6771894D01*
X1414271Y6785610D01*
X1391665Y6785610D02*
G01*
X1414271Y6785610D01*
X1444497Y6844537D02*
G01*
X1444497Y6749034D01*
X1444497Y6844537D02*
G01*
X1507997Y6749034D01*
X1507997Y6844537D02*
G01*
X1507997Y6749034D01*
X1537970Y6844537D02*
G01*
X1537970Y6749034D01*
X1537970Y6844537D02*
G01*
X1569720Y6844537D01*
X1583436Y6839965D01*
X1592579Y6831076D01*
X1597152Y6821931D01*
X1601723Y6808215D01*
X1601723Y6785610D01*
X1597152Y6771894D01*
X1592579Y6762750D01*
X1583436Y6753605D01*
X1569720Y6749034D01*
X1537970Y6749034D01*
X1407921Y6590537D02*
G01*
X1371600Y6495034D01*
X1407921Y6590537D02*
G01*
X1444244Y6495034D01*
X1385315Y6527037D02*
G01*
X1430781Y6527037D01*
X1501647Y6590537D02*
G01*
X1487931Y6585965D01*
X1478787Y6572504D01*
X1474215Y6549644D01*
X1474215Y6536181D01*
X1478787Y6513321D01*
X1487931Y6499605D01*
X1501647Y6495034D01*
X1510792Y6495034D01*
X1524254Y6499605D01*
X1533397Y6513321D01*
X1537970Y6536181D01*
X1537970Y6549644D01*
X1533397Y6572504D01*
X1524254Y6585965D01*
X1510792Y6590537D01*
X1501647Y6590537D01*
X1407921Y6336537D02*
G01*
X1371600Y6241034D01*
X1407921Y6336537D02*
G01*
X1444244Y6241034D01*
X1385315Y6273037D02*
G01*
X1430781Y6273037D01*
X1474215Y6318504D02*
G01*
X1483360Y6323076D01*
X1497076Y6336537D01*
X1497076Y6241034D01*
X1407921Y6095237D02*
G01*
X1371600Y5999734D01*
X1407921Y6095237D02*
G01*
X1444244Y5999734D01*
X1385315Y6031737D02*
G01*
X1430781Y6031737D01*
X1478787Y6072631D02*
G01*
X1478787Y6077204D01*
X1483360Y6086094D01*
X1487931Y6090665D01*
X1497076Y6095237D01*
X1515110Y6095237D01*
X1524254Y6090665D01*
X1528826Y6086094D01*
X1533397Y6077204D01*
X1533397Y6068060D01*
X1528826Y6058915D01*
X1519681Y6045200D01*
X1474215Y5999734D01*
X1537970Y5999734D01*
X1420621Y5828537D02*
G01*
X1384300Y5733034D01*
X1420621Y5828537D02*
G01*
X1456944Y5733034D01*
X1398015Y5765037D02*
G01*
X1443481Y5765037D01*
X1496060Y5828537D02*
G01*
X1546097Y5828537D01*
X1518920Y5792215D01*
X1532381Y5792215D01*
X1541526Y5787644D01*
X1546097Y5783071D01*
X1550670Y5769610D01*
X1550670Y5760465D01*
X1546097Y5746750D01*
X1536954Y5737605D01*
X1523492Y5733034D01*
X1509776Y5733034D01*
X1496060Y5737605D01*
X1491487Y5742178D01*
X1486915Y5751321D01*
X1407921Y5587237D02*
G01*
X1371600Y5491734D01*
X1407921Y5587237D02*
G01*
X1444244Y5491734D01*
X1385315Y5523737D02*
G01*
X1430781Y5523737D01*
X1519681Y5587237D02*
G01*
X1474215Y5523737D01*
X1542542Y5523737D01*
X1519681Y5587237D02*
G01*
X1519681Y5491734D01*
X1407921Y5320537D02*
G01*
X1371600Y5225034D01*
X1407921Y5320537D02*
G01*
X1444244Y5225034D01*
X1385315Y5257037D02*
G01*
X1430781Y5257037D01*
X1528826Y5320537D02*
G01*
X1483360Y5320537D01*
X1478787Y5279644D01*
X1483360Y5284215D01*
X1497076Y5288787D01*
X1510792Y5288787D01*
X1524254Y5284215D01*
X1533397Y5275071D01*
X1537970Y5261610D01*
X1537970Y5252465D01*
X1533397Y5238750D01*
X1524254Y5229605D01*
X1510792Y5225034D01*
X1497076Y5225034D01*
X1483360Y5229605D01*
X1478787Y5234178D01*
X1474215Y5243321D01*
X1448054Y5053076D02*
G01*
X1438910Y5061965D01*
X1425194Y5066537D01*
X1406905Y5066537D01*
X1393444Y5061965D01*
X1384300Y5053076D01*
X1384300Y5043931D01*
X1388871Y5034787D01*
X1393444Y5030215D01*
X1402587Y5025644D01*
X1429765Y5016500D01*
X1438910Y5012181D01*
X1443481Y5007610D01*
X1448054Y4998465D01*
X1448054Y4984750D01*
X1438910Y4975605D01*
X1425194Y4971034D01*
X1406905Y4971034D01*
X1393444Y4975605D01*
X1384300Y4984750D01*
X1546097Y5043931D02*
G01*
X1541526Y5053076D01*
X1532381Y5061965D01*
X1523492Y5066537D01*
X1505204Y5066537D01*
X1496060Y5061965D01*
X1486915Y5053076D01*
X1482597Y5043931D01*
X1478026Y5030215D01*
X1478026Y5007610D01*
X1482597Y4993894D01*
X1486915Y4984750D01*
X1496060Y4975605D01*
X1505204Y4971034D01*
X1523492Y4971034D01*
X1532381Y4975605D01*
X1541526Y4984750D01*
X1546097Y4993894D01*
X1576070Y5066537D02*
G01*
X1576070Y4971034D01*
X1639823Y5066537D02*
G01*
X1576070Y5003037D01*
X1598929Y5025644D02*
G01*
X1639823Y4971034D01*
X1371600Y4812537D02*
G01*
X1371600Y4717034D01*
X1371600Y4812537D02*
G01*
X1407921Y4717034D01*
X1444244Y4812537D02*
G01*
X1407921Y4717034D01*
X1444244Y4812537D02*
G01*
X1444244Y4717034D01*
X1501647Y4812537D02*
G01*
X1492504Y4807965D01*
X1483360Y4799076D01*
X1478787Y4789931D01*
X1474215Y4776215D01*
X1474215Y4753610D01*
X1478787Y4739894D01*
X1483360Y4730750D01*
X1492504Y4721605D01*
X1501647Y4717034D01*
X1519681Y4717034D01*
X1528826Y4721605D01*
X1537970Y4730750D01*
X1542542Y4739894D01*
X1547113Y4753610D01*
X1547113Y4776215D01*
X1542542Y4789931D01*
X1537970Y4799076D01*
X1528826Y4807965D01*
X1519681Y4812537D01*
X1501647Y4812537D01*
X1358900Y4558537D02*
G01*
X1358900Y4463034D01*
X1358900Y4558537D02*
G01*
X1395221Y4463034D01*
X1431544Y4558537D02*
G01*
X1395221Y4463034D01*
X1431544Y4558537D02*
G01*
X1431544Y4463034D01*
X1461515Y4558537D02*
G01*
X1461515Y4463034D01*
X1384300Y4304537D02*
G01*
X1384300Y4209034D01*
X1384300Y4304537D02*
G01*
X1425194Y4304537D01*
X1438910Y4299965D01*
X1443481Y4295394D01*
X1448054Y4286504D01*
X1448054Y4277360D01*
X1443481Y4268215D01*
X1438910Y4263644D01*
X1425194Y4259071D01*
X1384300Y4259071D01*
X1416050Y4259071D02*
G01*
X1448054Y4209034D01*
X1478026Y4304537D02*
G01*
X1541526Y4209034D01*
X1541526Y4304537D02*
G01*
X1478026Y4209034D01*
X1390650Y4050537D02*
G01*
X1390650Y3955034D01*
X1358900Y4050537D02*
G01*
X1422654Y4050537D01*
X1452626Y4050537D02*
G01*
X1516126Y3955034D01*
X1516126Y4050537D02*
G01*
X1452626Y3955034D01*
X1371600Y3809237D02*
G01*
X1371600Y3713734D01*
X1371600Y3809237D02*
G01*
X1435354Y3713734D01*
X1435354Y3809237D02*
G01*
X1435354Y3713734D01*
X1533397Y3786631D02*
G01*
X1528826Y3795776D01*
X1519681Y3804665D01*
X1510792Y3809237D01*
X1492504Y3809237D01*
X1483360Y3804665D01*
X1474215Y3795776D01*
X1469897Y3786631D01*
X1465326Y3772915D01*
X1465326Y3750310D01*
X1469897Y3736594D01*
X1474215Y3727450D01*
X1483360Y3718305D01*
X1492504Y3713734D01*
X1510792Y3713734D01*
X1519681Y3718305D01*
X1528826Y3727450D01*
X1533397Y3736594D01*
X4102100Y6590537D02*
G01*
X4102100Y6495034D01*
X4102100Y6495034D02*
G01*
X4156709Y6495034D01*
X4186681Y6590537D02*
G01*
X4191254Y6585965D01*
X4195825Y6590537D01*
X4191254Y6595110D01*
X4186681Y6590537D01*
X4191254Y6558787D02*
G01*
X4191254Y6495034D01*
X4266691Y6577076D02*
G01*
X4266691Y6495034D01*
X4225797Y6536181D02*
G01*
X4307586Y6536181D01*
X4114800Y6336537D02*
G01*
X4151122Y6241034D01*
X4187443Y6336537D02*
G01*
X4151122Y6241034D01*
X4285741Y6313931D02*
G01*
X4281170Y6323076D01*
X4272025Y6331965D01*
X4262881Y6336537D01*
X4244847Y6336537D01*
X4235704Y6331965D01*
X4226559Y6323076D01*
X4221988Y6313931D01*
X4217415Y6300215D01*
X4217415Y6277610D01*
X4221988Y6263894D01*
X4226559Y6254750D01*
X4235704Y6245605D01*
X4244847Y6241034D01*
X4262881Y6241034D01*
X4272025Y6245605D01*
X4281170Y6254750D01*
X4285741Y6263894D01*
X4383786Y6313931D02*
G01*
X4379468Y6323076D01*
X4370324Y6331965D01*
X4361179Y6336537D01*
X4342891Y6336537D01*
X4334002Y6331965D01*
X4324858Y6323076D01*
X4320286Y6313931D01*
X4315713Y6300215D01*
X4315713Y6277610D01*
X4320286Y6263894D01*
X4324858Y6254750D01*
X4334002Y6245605D01*
X4342891Y6241034D01*
X4361179Y6241034D01*
X4370324Y6245605D01*
X4379468Y6254750D01*
X4383786Y6263894D01*
X4114800Y6095237D02*
G01*
X4151122Y5999734D01*
X4187443Y6095237D02*
G01*
X4151122Y5999734D01*
X4217415Y6095237D02*
G01*
X4217415Y6027165D01*
X4221988Y6013450D01*
X4231131Y6004305D01*
X4244847Y5999734D01*
X4253991Y5999734D01*
X4267454Y6004305D01*
X4276597Y6013450D01*
X4281170Y6027165D01*
X4281170Y6095237D01*
X4374895Y6081776D02*
G01*
X4365752Y6090665D01*
X4352036Y6095237D01*
X4334002Y6095237D01*
X4320286Y6090665D01*
X4311141Y6081776D01*
X4311141Y6072631D01*
X4315713Y6063487D01*
X4320286Y6058915D01*
X4329429Y6054344D01*
X4356608Y6045200D01*
X4365752Y6040881D01*
X4370324Y6036310D01*
X4374895Y6027165D01*
X4374895Y6013450D01*
X4365752Y6004305D01*
X4352036Y5999734D01*
X4334002Y5999734D01*
X4320286Y6004305D01*
X4311141Y6013450D01*
X4404868Y6095237D02*
G01*
X4404868Y5999734D01*
X4404868Y6095237D02*
G01*
X4445761Y6095237D01*
X4459224Y6090665D01*
X4463795Y6086094D01*
X4468368Y6077204D01*
X4468368Y6068060D01*
X4463795Y6058915D01*
X4459224Y6054344D01*
X4445761Y6049771D01*
X4404868Y6049771D02*
G01*
X4445761Y6049771D01*
X4459224Y6045200D01*
X4463795Y6040881D01*
X4468368Y6031737D01*
X4468368Y6018021D01*
X4463795Y6008878D01*
X4459224Y6004305D01*
X4445761Y5999734D01*
X4404868Y5999734D01*
X4102100Y5841237D02*
G01*
X4102100Y5745734D01*
X4102100Y5841237D02*
G01*
X4133850Y5841237D01*
X4147565Y5836665D01*
X4156709Y5827776D01*
X4161281Y5818631D01*
X4165854Y5804915D01*
X4165854Y5782310D01*
X4161281Y5768594D01*
X4156709Y5759450D01*
X4147565Y5750305D01*
X4133850Y5745734D01*
X4102100Y5745734D01*
X4218431Y5841237D02*
G01*
X4204715Y5836665D01*
X4200397Y5827776D01*
X4200397Y5818631D01*
X4204715Y5809487D01*
X4213859Y5804915D01*
X4232147Y5800344D01*
X4245609Y5795771D01*
X4254754Y5786881D01*
X4259325Y5777737D01*
X4259325Y5764021D01*
X4254754Y5754878D01*
X4250181Y5750305D01*
X4236720Y5745734D01*
X4218431Y5745734D01*
X4204715Y5750305D01*
X4200397Y5754878D01*
X4195825Y5764021D01*
X4195825Y5777737D01*
X4200397Y5786881D01*
X4209288Y5795771D01*
X4223004Y5800344D01*
X4241291Y5804915D01*
X4250181Y5809487D01*
X4254754Y5818631D01*
X4254754Y5827776D01*
X4250181Y5836665D01*
X4236720Y5841237D01*
X4218431Y5841237D01*
X4102100Y5587237D02*
G01*
X4102100Y5491734D01*
X4102100Y5587237D02*
G01*
X4133850Y5587237D01*
X4147565Y5582665D01*
X4156709Y5573776D01*
X4161281Y5564631D01*
X4165854Y5550915D01*
X4165854Y5528310D01*
X4161281Y5514594D01*
X4156709Y5505450D01*
X4147565Y5496305D01*
X4133850Y5491734D01*
X4102100Y5491734D01*
X4259325Y5587237D02*
G01*
X4213859Y5491734D01*
X4195825Y5587237D02*
G01*
X4259325Y5587237D01*
X4102100Y5320537D02*
G01*
X4102100Y5225034D01*
X4102100Y5320537D02*
G01*
X4133850Y5320537D01*
X4147565Y5315965D01*
X4156709Y5307076D01*
X4161281Y5297931D01*
X4165854Y5284215D01*
X4165854Y5261610D01*
X4161281Y5247894D01*
X4156709Y5238750D01*
X4147565Y5229605D01*
X4133850Y5225034D01*
X4102100Y5225034D01*
X4250181Y5307076D02*
G01*
X4245609Y5315965D01*
X4232147Y5320537D01*
X4223004Y5320537D01*
X4209288Y5315965D01*
X4200397Y5302504D01*
X4195825Y5279644D01*
X4195825Y5257037D01*
X4200397Y5238750D01*
X4209288Y5229605D01*
X4223004Y5225034D01*
X4227575Y5225034D01*
X4241291Y5229605D01*
X4250181Y5238750D01*
X4254754Y5252465D01*
X4254754Y5257037D01*
X4250181Y5270500D01*
X4241291Y5279644D01*
X4227575Y5284215D01*
X4223004Y5284215D01*
X4209288Y5279644D01*
X4200397Y5270500D01*
X4195825Y5257037D01*
X4089400Y5079237D02*
G01*
X4089400Y4983734D01*
X4089400Y5079237D02*
G01*
X4121150Y5079237D01*
X4134865Y5074665D01*
X4144009Y5065776D01*
X4148581Y5056631D01*
X4153154Y5042915D01*
X4153154Y5020310D01*
X4148581Y5006594D01*
X4144009Y4997450D01*
X4134865Y4988305D01*
X4121150Y4983734D01*
X4089400Y4983734D01*
X4237481Y5079237D02*
G01*
X4192015Y5079237D01*
X4187697Y5038344D01*
X4192015Y5042915D01*
X4205731Y5047487D01*
X4219447Y5047487D01*
X4232909Y5042915D01*
X4242054Y5033771D01*
X4246625Y5020310D01*
X4246625Y5011165D01*
X4242054Y4997450D01*
X4232909Y4988305D01*
X4219447Y4983734D01*
X4205731Y4983734D01*
X4192015Y4988305D01*
X4187697Y4992878D01*
X4183125Y5002021D01*
X4076700Y4825237D02*
G01*
X4076700Y4729734D01*
X4076700Y4825237D02*
G01*
X4108450Y4825237D01*
X4122165Y4820665D01*
X4131309Y4811776D01*
X4135881Y4802631D01*
X4140454Y4788915D01*
X4140454Y4766310D01*
X4135881Y4752594D01*
X4131309Y4743450D01*
X4122165Y4734305D01*
X4108450Y4729734D01*
X4076700Y4729734D01*
X4215891Y4825237D02*
G01*
X4170425Y4761737D01*
X4238497Y4761737D01*
X4215891Y4825237D02*
G01*
X4215891Y4729734D01*
X4089400Y4558537D02*
G01*
X4089400Y4463034D01*
X4089400Y4558537D02*
G01*
X4121150Y4558537D01*
X4134865Y4553965D01*
X4144009Y4545076D01*
X4148581Y4535931D01*
X4153154Y4522215D01*
X4153154Y4499610D01*
X4148581Y4485894D01*
X4144009Y4476750D01*
X4134865Y4467605D01*
X4121150Y4463034D01*
X4089400Y4463034D01*
X4192015Y4558537D02*
G01*
X4242054Y4558537D01*
X4214875Y4522215D01*
X4228591Y4522215D01*
X4237481Y4517644D01*
X4242054Y4513071D01*
X4246625Y4499610D01*
X4246625Y4490465D01*
X4242054Y4476750D01*
X4232909Y4467605D01*
X4219447Y4463034D01*
X4205731Y4463034D01*
X4192015Y4467605D01*
X4187697Y4472178D01*
X4183125Y4481321D01*
X4089400Y4317237D02*
G01*
X4089400Y4221734D01*
X4089400Y4317237D02*
G01*
X4121150Y4317237D01*
X4134865Y4312665D01*
X4144009Y4303776D01*
X4148581Y4294631D01*
X4153154Y4280915D01*
X4153154Y4258310D01*
X4148581Y4244594D01*
X4144009Y4235450D01*
X4134865Y4226305D01*
X4121150Y4221734D01*
X4089400Y4221734D01*
X4187697Y4294631D02*
G01*
X4187697Y4299204D01*
X4192015Y4308094D01*
X4196588Y4312665D01*
X4205731Y4317237D01*
X4224020Y4317237D01*
X4232909Y4312665D01*
X4237481Y4308094D01*
X4242054Y4299204D01*
X4242054Y4290060D01*
X4237481Y4280915D01*
X4228591Y4267200D01*
X4183125Y4221734D01*
X4246625Y4221734D01*
X4165854Y4049776D02*
G01*
X4156709Y4058665D01*
X4142993Y4063237D01*
X4124706Y4063237D01*
X4111243Y4058665D01*
X4102100Y4049776D01*
X4102100Y4040631D01*
X4106672Y4031487D01*
X4111243Y4026915D01*
X4120388Y4022344D01*
X4147565Y4013200D01*
X4156709Y4008881D01*
X4161281Y4004310D01*
X4165854Y3995165D01*
X4165854Y3981450D01*
X4156709Y3972305D01*
X4142993Y3967734D01*
X4124706Y3967734D01*
X4111243Y3972305D01*
X4102100Y3981450D01*
X4263897Y4040631D02*
G01*
X4259325Y4049776D01*
X4250181Y4058665D01*
X4241291Y4063237D01*
X4223004Y4063237D01*
X4213859Y4058665D01*
X4204715Y4049776D01*
X4200397Y4040631D01*
X4195825Y4026915D01*
X4195825Y4004310D01*
X4200397Y3990594D01*
X4204715Y3981450D01*
X4213859Y3972305D01*
X4223004Y3967734D01*
X4241291Y3967734D01*
X4250181Y3972305D01*
X4259325Y3981450D01*
X4263897Y3990594D01*
X4293870Y4063237D02*
G01*
X4293870Y3967734D01*
X4293870Y3967734D02*
G01*
X4348479Y3967734D01*
X4153154Y3808476D02*
G01*
X4144009Y3817365D01*
X4130293Y3821937D01*
X4112006Y3821937D01*
X4098543Y3817365D01*
X4089400Y3808476D01*
X4089400Y3799331D01*
X4093972Y3790187D01*
X4098543Y3785615D01*
X4107688Y3781044D01*
X4134865Y3771900D01*
X4144009Y3767581D01*
X4148581Y3763010D01*
X4153154Y3753865D01*
X4153154Y3740150D01*
X4144009Y3731005D01*
X4130293Y3726434D01*
X4112006Y3726434D01*
X4098543Y3731005D01*
X4089400Y3740150D01*
X4183125Y3821937D02*
G01*
X4183125Y3726434D01*
X4183125Y3821937D02*
G01*
X4214875Y3821937D01*
X4228591Y3817365D01*
X4237481Y3808476D01*
X4242054Y3799331D01*
X4246625Y3785615D01*
X4246625Y3763010D01*
X4242054Y3749294D01*
X4237481Y3740150D01*
X4228591Y3731005D01*
X4214875Y3726434D01*
X4183125Y3726434D01*
X4312920Y3821937D02*
G01*
X4276597Y3726434D01*
X4312920Y3821937D02*
G01*
X4349495Y3726434D01*
X4290313Y3758437D02*
G01*
X4335779Y3758437D01*
D18*
X10959084Y1511300D02*
G01*
X11068050Y1511300D01*
X10959084Y1511300D02*
G01*
X10959084Y1558036D01*
X10964163Y1573529D01*
X10969497Y1578863D01*
X10979911Y1583944D01*
X10990325Y1583944D01*
X11000740Y1578863D01*
X11005820Y1573529D01*
X11010900Y1558036D01*
X11010900Y1511300D02*
G01*
X11010900Y1558036D01*
X11016234Y1573529D01*
X11021313Y1578863D01*
X11031727Y1583944D01*
X11047475Y1583944D01*
X11057890Y1578863D01*
X11062970Y1573529D01*
X11068050Y1558036D01*
X11068050Y1511300D01*
X10959084Y1618234D02*
G01*
X11037061Y1618234D01*
X11052556Y1623568D01*
X11062970Y1633981D01*
X11068050Y1649476D01*
X11068050Y1659889D01*
X11062970Y1675384D01*
X11052556Y1685797D01*
X11037061Y1691131D01*
X10959084Y1691131D01*
X10959084Y1798065D02*
G01*
X11068050Y1725421D01*
X10959084Y1725421D02*
G01*
X10959084Y1798065D01*
X11068050Y1725421D02*
G01*
X11068050Y1798065D01*
X10959084Y1905000D02*
G01*
X11068050Y1832355D01*
X10959084Y1832355D02*
G01*
X10959084Y1905000D01*
X11068050Y1832355D02*
G01*
X11068050Y1905000D01*
X10959084Y1939289D02*
G01*
X11068050Y1939289D01*
X10959084Y1939289D02*
G01*
X10959084Y2006854D01*
X11010900Y1939289D02*
G01*
X11010900Y1980945D01*
X11068050Y1939289D02*
G01*
X11068050Y2006854D01*
X10959084Y2041144D02*
G01*
X11068050Y2041144D01*
X10959084Y2041144D02*
G01*
X10959084Y2087879D01*
X10964163Y2103628D01*
X10969497Y2108707D01*
X10979911Y2114042D01*
X10990325Y2114042D01*
X11000740Y2108707D01*
X11005820Y2103628D01*
X11010900Y2087879D01*
X11010900Y2041144D01*
X11010900Y2077720D02*
G01*
X11068050Y2114042D01*
X10979911Y2148331D02*
G01*
X10974577Y2158745D01*
X10959084Y2174239D01*
X11068050Y2174239D01*
D17*
X11417300Y1340357D02*
G01*
X11583415Y1340357D01*
X11500358Y1257300D02*
G01*
X11500358Y1423670D01*
D18*
X8712200Y1053084D02*
G01*
X8712200Y1162050D01*
X8712200Y1162050D02*
G01*
X8649970Y1162050D01*
X8615679Y1053084D02*
G01*
X8615679Y1162050D01*
X8615679Y1053084D02*
G01*
X8548115Y1053084D01*
X8615679Y1104900D02*
G01*
X8574024Y1104900D01*
X8615679Y1162050D02*
G01*
X8548115Y1162050D01*
X8513825Y1053084D02*
G01*
X8513825Y1162050D01*
X8513825Y1053084D02*
G01*
X8477250Y1053084D01*
X8461756Y1058163D01*
X8451341Y1068578D01*
X8446261Y1078992D01*
X8440927Y1094739D01*
X8440927Y1120647D01*
X8446261Y1136142D01*
X8451341Y1146555D01*
X8461756Y1156970D01*
X8477250Y1162050D01*
X8513825Y1162050D01*
X8401558Y1078992D02*
G01*
X8401558Y1073912D01*
X8396224Y1063497D01*
X8391143Y1058163D01*
X8380729Y1053084D01*
X8359902Y1053084D01*
X8349488Y1058163D01*
X8344408Y1063497D01*
X8339074Y1073912D01*
X8339074Y1084326D01*
X8344408Y1094739D01*
X8354822Y1110234D01*
X8406638Y1162050D01*
X8333993Y1162050D01*
X7785100Y1256284D02*
G01*
X7785100Y1365250D01*
X7785100Y1365250D02*
G01*
X7722870Y1365250D01*
X7688579Y1256284D02*
G01*
X7688579Y1365250D01*
X7688579Y1256284D02*
G01*
X7621015Y1256284D01*
X7688579Y1308100D02*
G01*
X7646924Y1308100D01*
X7688579Y1365250D02*
G01*
X7621015Y1365250D01*
X7586725Y1256284D02*
G01*
X7586725Y1365250D01*
X7586725Y1256284D02*
G01*
X7550150Y1256284D01*
X7534656Y1261363D01*
X7524241Y1271778D01*
X7519161Y1282192D01*
X7513827Y1297939D01*
X7513827Y1323847D01*
X7519161Y1339342D01*
X7524241Y1349755D01*
X7534656Y1360170D01*
X7550150Y1365250D01*
X7586725Y1365250D01*
X7469124Y1256284D02*
G01*
X7411974Y1256284D01*
X7443215Y1297939D01*
X7427722Y1297939D01*
X7417308Y1303020D01*
X7411974Y1308100D01*
X7406893Y1323847D01*
X7406893Y1334262D01*
X7411974Y1349755D01*
X7422388Y1360170D01*
X7438136Y1365250D01*
X7453629Y1365250D01*
X7469124Y1360170D01*
X7474458Y1355089D01*
X7479538Y1344676D01*
X9970515Y3700592D02*
G01*
X9861550Y3700592D01*
X9970515Y3700592D02*
G01*
X9970515Y3653856D01*
X9965436Y3638362D01*
X9960102Y3633028D01*
X9949688Y3627948D01*
X9939274Y3627948D01*
X9928859Y3633028D01*
X9923779Y3638362D01*
X9918700Y3653856D01*
X9918700Y3700592D01*
X9918700Y3664270D02*
G01*
X9861550Y3627948D01*
X9949688Y3593658D02*
G01*
X9955022Y3583244D01*
X9970515Y3567496D01*
X9861550Y3567496D01*
X9005315Y3687892D02*
G01*
X8896350Y3687892D01*
X9005315Y3687892D02*
G01*
X9005315Y3641156D01*
X9000236Y3625662D01*
X8994902Y3620328D01*
X8984488Y3615248D01*
X8974074Y3615248D01*
X8963659Y3620328D01*
X8958579Y3625662D01*
X8953500Y3641156D01*
X8953500Y3687892D01*
X8953500Y3651570D02*
G01*
X8896350Y3615248D01*
X8979408Y3575624D02*
G01*
X8984488Y3575624D01*
X8994902Y3570544D01*
X9000236Y3565210D01*
X9005315Y3554796D01*
X9005315Y3534222D01*
X9000236Y3523808D01*
X8994902Y3518474D01*
X8984488Y3513394D01*
X8974074Y3513394D01*
X8963659Y3518474D01*
X8948165Y3528888D01*
X8896350Y3580958D01*
X8896350Y3508060D01*
X8154415Y3713292D02*
G01*
X8045450Y3713292D01*
X8154415Y3713292D02*
G01*
X8154415Y3666556D01*
X8149336Y3651062D01*
X8144002Y3645728D01*
X8133588Y3640648D01*
X8123174Y3640648D01*
X8112759Y3645728D01*
X8107679Y3651062D01*
X8102600Y3666556D01*
X8102600Y3713292D01*
X8102600Y3676970D02*
G01*
X8045450Y3640648D01*
X8154415Y3595944D02*
G01*
X8154415Y3538794D01*
X8112759Y3569782D01*
X8112759Y3554288D01*
X8107679Y3543874D01*
X8102600Y3538794D01*
X8086852Y3533460D01*
X8076438Y3533460D01*
X8060943Y3538794D01*
X8050529Y3549208D01*
X8045450Y3564702D01*
X8045450Y3580196D01*
X8050529Y3595944D01*
X8055609Y3601024D01*
X8066024Y3606358D01*
X12370815Y3687892D02*
G01*
X12261850Y3687892D01*
X12370815Y3687892D02*
G01*
X12370815Y3641156D01*
X12365736Y3625662D01*
X12360402Y3620328D01*
X12349988Y3615248D01*
X12339574Y3615248D01*
X12329159Y3620328D01*
X12324079Y3625662D01*
X12319000Y3641156D01*
X12319000Y3687892D01*
X12319000Y3651570D02*
G01*
X12261850Y3615248D01*
X12370815Y3528888D02*
G01*
X12298172Y3580958D01*
X12298172Y3502980D01*
X12370815Y3528888D02*
G01*
X12261850Y3528888D01*
X9702800Y1053084D02*
G01*
X9702800Y1162050D01*
X9702800Y1162050D02*
G01*
X9640570Y1162050D01*
X9606279Y1053084D02*
G01*
X9606279Y1162050D01*
X9606279Y1053084D02*
G01*
X9538715Y1053084D01*
X9606279Y1104900D02*
G01*
X9564624Y1104900D01*
X9606279Y1162050D02*
G01*
X9538715Y1162050D01*
X9504425Y1053084D02*
G01*
X9504425Y1162050D01*
X9504425Y1053084D02*
G01*
X9467850Y1053084D01*
X9452356Y1058163D01*
X9441941Y1068578D01*
X9436861Y1078992D01*
X9431527Y1094739D01*
X9431527Y1120647D01*
X9436861Y1136142D01*
X9441941Y1146555D01*
X9452356Y1156970D01*
X9467850Y1162050D01*
X9504425Y1162050D01*
X9397238Y1073912D02*
G01*
X9386824Y1068578D01*
X9371329Y1053084D01*
X9371329Y1162050D01*
X2857500Y8370315D02*
G01*
X2857500Y8292337D01*
X2862579Y8276844D01*
X2872993Y8266429D01*
X2888741Y8261350D01*
X2899156Y8261350D01*
X2914650Y8266429D01*
X2925063Y8276844D01*
X2930143Y8292337D01*
X2930143Y8370315D01*
X2969768Y8344408D02*
G01*
X2969768Y8349487D01*
X2974847Y8359902D01*
X2980181Y8365236D01*
X2990595Y8370315D01*
X3011170Y8370315D01*
X3021584Y8365236D01*
X3026918Y8359902D01*
X3031997Y8349487D01*
X3031997Y8339073D01*
X3026918Y8328660D01*
X3016504Y8313165D01*
X2964434Y8261350D01*
X3037331Y8261350D01*
X9982200Y8471915D02*
G01*
X9982200Y8393937D01*
X9987279Y8378444D01*
X9997693Y8368029D01*
X10013441Y8362950D01*
X10023856Y8362950D01*
X10039350Y8368029D01*
X10049763Y8378444D01*
X10054843Y8393937D01*
X10054843Y8471915D01*
X10099547Y8471915D02*
G01*
X10156697Y8471915D01*
X10125709Y8430260D01*
X10141204Y8430260D01*
X10151618Y8425179D01*
X10156697Y8420100D01*
X10162031Y8404352D01*
X10162031Y8393937D01*
X10156697Y8378444D01*
X10146284Y8368029D01*
X10130790Y8362950D01*
X10115295Y8362950D01*
X10099547Y8368029D01*
X10094468Y8373110D01*
X10089134Y8383523D01*
D10*
X8407400Y1714500D02*
G01*
X8407400Y1333500D01*
X8788400Y1371600D02*
G01*
X8737600Y1371600D01*
X8763000Y1346200D02*
G01*
X8763000Y1397000D01*
X7861300Y1485900D02*
G01*
X7810500Y1435100D01*
X7835900Y1435100D01*
X7848600Y1435100D01*
X7810500Y1435100D02*
G01*
X7810500Y1473200D01*
X7772400Y1485900D02*
G01*
X7721600Y1435100D01*
X7747000Y1435100D01*
X7759700Y1435100D01*
X7721600Y1435100D02*
G01*
X7721600Y1473200D01*
X9820902Y3850695D02*
G01*
X9660897Y3850695D01*
X9661408Y3665634D02*
G01*
X9661408Y3540638D01*
X9821412Y3665634D02*
G01*
X9821412Y3540638D01*
X9660897Y3725692D02*
G01*
X9660897Y3850695D01*
X9820902Y3725692D02*
G01*
X9820902Y3850695D01*
X9821412Y3540638D02*
G01*
X9661408Y3540638D01*
X8855702Y3837995D02*
G01*
X8695697Y3837995D01*
X8696208Y3652934D02*
G01*
X8696208Y3527938D01*
X8856212Y3652934D02*
G01*
X8856212Y3527938D01*
X8695697Y3712992D02*
G01*
X8695697Y3837995D01*
X8855702Y3712992D02*
G01*
X8855702Y3837995D01*
X8856212Y3527938D02*
G01*
X8696208Y3527938D01*
X8004802Y3863395D02*
G01*
X7844797Y3863395D01*
X7845308Y3678334D02*
G01*
X7845308Y3553338D01*
X8005312Y3678334D02*
G01*
X8005312Y3553338D01*
X7844797Y3738392D02*
G01*
X7844797Y3863395D01*
X8004802Y3738392D02*
G01*
X8004802Y3863395D01*
X8005312Y3553338D02*
G01*
X7845308Y3553338D01*
X12221202Y3837995D02*
G01*
X12061197Y3837995D01*
X12061708Y3652934D02*
G01*
X12061708Y3527938D01*
X12221712Y3652934D02*
G01*
X12221712Y3527938D01*
X12061197Y3712992D02*
G01*
X12061197Y3837995D01*
X12221202Y3712992D02*
G01*
X12221202Y3837995D01*
X12221712Y3527938D02*
G01*
X12061708Y3527938D01*
X9398000Y1714500D02*
G01*
X9398000Y1333500D01*
X9779000Y1371600D02*
G01*
X9728200Y1371600D01*
X9753600Y1346200D02*
G01*
X9753600Y1397000D01*
X3746500Y8204200D02*
G01*
X3111500Y8204200D01*
X3060700Y8174304D01*
X2654300Y8174304D01*
X2603500Y8204200D01*
X1968500Y8204200D01*
X4000500Y3378200D02*
G01*
X4000500Y7950200D01*
X1968500Y3124200D02*
G01*
X3746500Y3124200D01*
X1714500Y7950200D02*
G01*
X1714500Y3378200D01*
X8813800Y8305800D02*
G01*
X8813800Y4495800D01*
X8788400Y4470400D01*
X7772400Y6654800D02*
G01*
X8255000Y6654800D01*
X8255000Y6146800D01*
X7772400Y6146800D01*
X7772400Y6654800D01*
X9220200Y7239000D02*
G01*
X9728200Y7239000D01*
X9728200Y5537200D01*
X9220200Y5537200D01*
X9220200Y7239000D01*
X7086600Y7162800D02*
G01*
X7340600Y7162800D01*
X7086600Y7416800D02*
G01*
X7340600Y7416800D01*
X7340600Y5384800D01*
X7086600Y5384800D01*
X7086600Y7416800D01*
X7035800Y8331200D02*
G01*
X7035800Y4470400D01*
X12954000Y4470400D01*
X12954000Y8331200D01*
X7035800Y8331200D01*
X7035800Y8331200D02*
G01*
X7035800Y4470400D01*
G75*
G01*
X11297603Y1404732D02*
G03*
X12174639Y1416213I437198J106568D01*
G75*
G01*
X12174131Y1608709D02*
G03*
X11294633Y1604871I-439332J-97398D01*
G75*
G01*
X8407400Y1714500D02*
G02*
X8407400Y1333500I254000J-190500D01*
G75*
G01*
X9398000Y1714500D02*
G02*
X9398000Y1333500I254000J-190500D01*
G75*
G01*
X4000500Y7950200D02*
G03*
X3746500Y8204200I-254000J0D01*
G75*
G01*
X3746500Y3124200D02*
G03*
X4000500Y3378200I0J254000D01*
G75*
G01*
X1714500Y3378200D02*
G03*
X1968500Y3124200I254000J0D01*
G75*
G01*
X1968500Y8204200D02*
G03*
X1714500Y7950200I0J-254000D01*
G75*
G01*
X3873500Y3378200D02*
G03*
X3872992Y3366922I-127000J70D01*
G75*
G01*
X2095500Y3378200D02*
G03*
X2094992Y3366922I-127000J70D01*
G75*
G01*
X10134600Y5588000D02*
G03*
X11621023Y5600583I736599J787402D01*
G75*
G01*
X10337800Y5740400D02*
G03*
X11442349Y5777248I533400J584199D01*
G75*
G01*
X10490200Y5892800D02*
G03*
X11343287Y5927837I406399J508001D01*
G75*
G01*
X10591800Y6096000D02*
G03*
X11188974Y6084062I304800J304802D01*
G75*
G01*
X10744200Y6248400D02*
G03*
X11036877Y6235123I152400J126998D01*
G75*
G01*
X11658600Y7213600D02*
G03*
X10121809Y7201418I-762001J-812798D01*
G75*
G01*
X11506200Y7010400D02*
G03*
X10287000Y7010400I-609600J-609599D01*
G75*
G01*
X11353800Y6883400D02*
G03*
X10419860Y6911365I-482600J-507999D01*
G75*
G01*
X11201400Y6705600D02*
G03*
X10591800Y6705600I-304800J-304801D01*
G75*
G01*
X11049000Y6553200D02*
G03*
X10718800Y6527800I-152400J-177798D01*
G75*
G01
X8915400Y1524000D02*
G03X8915400Y1524000I-254000J0D01*
G75*
G01
X7985100Y1600200D02*
G03X7985100Y1600200I-200000J0D01*
G75*
G01
X9906000Y1524000D02*
G03X9906000Y1524000I-254000J0D01*
G75*
G01
X10942396Y6400800D02*
G03X10942396Y6400800I-45796J0D01*
M02*
