G04 Layer: TopLayer*
G04 EasyEDA v6.4.19.5, 2021-05-20T10:28:44+07:00*
G04 27e653f2f64e4e94b3cc02e3c5d75013,8de9fd2be1ea41df81dd73b3f080cf7e,10*
G04 Gerber Generator version 0.2*
G04 Scale: 100 percent, Rotated: No, Reflected: No *
G04 Dimensions in millimeters *
G04 leading zeros omitted , absolute positions ,4 integer and 5 decimal *
%FSLAX45Y45*%
%MOMM*%

%ADD10C,0.2540*%
%ADD11R,5.0000X1.5000*%
%ADD12R,1.1000X1.0000*%
%ADD13R,1.6000X1.6000*%
%ADD14C,1.6000*%
%ADD15R,1.5240X1.5240*%
%ADD16C,1.5240*%

%LPD*%
D10*
X3873500Y4267200D02*
G01*
X7277100Y863600D01*
X10477500Y863600D01*
X11125200Y1511300D01*
X11374805Y1511300D01*
X3873500Y4521200D02*
G01*
X7378700Y1016000D01*
X9093200Y1016000D01*
X9525000Y1447800D01*
X9525000Y1524000D01*
X3873500Y5029200D02*
G01*
X7302500Y1600200D01*
X7658100Y1600200D01*
X3873500Y4775200D02*
G01*
X7404100Y1244600D01*
X8064500Y1244600D01*
X8343900Y1524000D01*
X8534400Y1524000D01*
X7213600Y7315200D02*
G01*
X1841500Y7315200D01*
X7213600Y6807200D02*
G01*
X7708900Y6807200D01*
X7937500Y6578600D01*
X7937500Y3810000D01*
X7213600Y6807200D02*
G01*
X1841500Y6807200D01*
X7150100Y6743700D02*
G01*
X7213600Y6807200D01*
X12141200Y3603005D02*
G01*
X12094794Y3556599D01*
X12094794Y1511300D01*
X9740900Y3615705D02*
G01*
X9779000Y3577605D01*
X9779000Y1524000D01*
X8775700Y3603005D02*
G01*
X8788400Y3590305D01*
X8788400Y1524000D01*
X7912100Y1600200D02*
G01*
X7924800Y1612900D01*
X7924800Y3628405D01*
X9740900Y3775699D02*
G01*
X9753600Y3762999D01*
X12141200Y3762999D01*
X8775700Y3762999D02*
G01*
X8788400Y3775699D01*
X9740900Y3775699D01*
X7924800Y3788399D02*
G01*
X7950200Y3762999D01*
X8775700Y3762999D01*
D11*
G01*
X11374805Y1511300D03*
G01*
X12094794Y1511300D03*
D12*
G01*
X9740900Y3615705D03*
G01*
X9740900Y3775699D03*
G01*
X8775700Y3603005D03*
G01*
X8775700Y3762999D03*
G01*
X7924800Y3628405D03*
G01*
X7924800Y3788399D03*
G01*
X12141200Y3603005D03*
G01*
X12141200Y3762999D03*
D13*
G01*
X8788400Y1524000D03*
D14*
G01*
X8534400Y1524000D03*
D15*
G01*
X7912100Y1600200D03*
D16*
G01*
X7658100Y1600200D03*
D13*
G01*
X9779000Y1524000D03*
D14*
G01*
X9525000Y1524000D03*
G36*
X7137400Y7391400D02*
G01*
X7289800Y7391400D01*
X7289800Y7239000D01*
X7137400Y7239000D01*
G37*
D16*
G01*
X7213600Y7061200D03*
G01*
X7213600Y6807200D03*
G01*
X7213600Y6553200D03*
G01*
X7213600Y6299200D03*
G01*
X7213600Y6045200D03*
G01*
X7213600Y5791200D03*
G01*
X7213600Y5537200D03*
X1790700Y7569200D02*
G01*
X1892300Y7569200D01*
X1790700Y7315200D02*
G01*
X1892300Y7315200D01*
X1790700Y7061200D02*
G01*
X1892300Y7061200D01*
X1790700Y6807200D02*
G01*
X1892300Y6807200D01*
X1790700Y6553200D02*
G01*
X1892300Y6553200D01*
X1790700Y6299200D02*
G01*
X1892300Y6299200D01*
X1790700Y6045200D02*
G01*
X1892300Y6045200D01*
X1790700Y5791200D02*
G01*
X1892300Y5791200D01*
X1790700Y5537200D02*
G01*
X1892300Y5537200D01*
X1790700Y5283200D02*
G01*
X1892300Y5283200D01*
X1790700Y5029200D02*
G01*
X1892300Y5029200D01*
X1790700Y4775200D02*
G01*
X1892300Y4775200D01*
X1790700Y4521200D02*
G01*
X1892300Y4521200D01*
X1790700Y4267200D02*
G01*
X1892300Y4267200D01*
X1790700Y4013200D02*
G01*
X1892300Y4013200D01*
X1790700Y3759200D02*
G01*
X1892300Y3759200D01*
X3822700Y3759200D02*
G01*
X3924300Y3759200D01*
X3822700Y4013200D02*
G01*
X3924300Y4013200D01*
X3822700Y4267200D02*
G01*
X3924300Y4267200D01*
X3822700Y4521200D02*
G01*
X3924300Y4521200D01*
X3822700Y4775200D02*
G01*
X3924300Y4775200D01*
X3822700Y5029200D02*
G01*
X3924300Y5029200D01*
X3822700Y5283200D02*
G01*
X3924300Y5283200D01*
X3822700Y5537200D02*
G01*
X3924300Y5537200D01*
X3822700Y5791200D02*
G01*
X3924300Y5791200D01*
X3822700Y6045200D02*
G01*
X3924300Y6045200D01*
X3822700Y6299200D02*
G01*
X3924300Y6299200D01*
X3822700Y6553200D02*
G01*
X3924300Y6553200D01*
M02*
