M48
METRIC,LZ,000.000
;FILE_FORMAT=3:3
;TYPE=PLATED
;Layer: Drill PTH
;EasyEDA v6.4.19.5, 2021-05-20T10:28:44+07:00
;27e653f2f64e4e94b3cc02e3c5d75013,8de9fd2be1ea41df81dd73b3f080cf7e,10
;Gerber Generator version 0.2
;Holesize 1 = 0.915 mm
T01C0.915
;Holesize 2 = 1.000 mm
T02C1.000
%
G05
G90
T01
X079121Y016002
X076581Y016002
X018415Y075692
X018415Y073152
X018415Y070612
X018415Y068072
X018415Y065532
X018415Y062992
X018415Y060452
X018415Y057912
X018415Y055372
X018415Y052832
X018415Y050292
X018415Y047752
X018415Y045212
X018415Y042672
X018415Y040132
X018415Y037592
X038735Y037592
X038735Y040132
X038735Y042672
X038735Y045212
X038735Y047752
X038735Y050292
X038735Y052832
X038735Y055372
X038735Y057912
X038735Y060452
X038735Y062992
X038735Y065532
X072136Y073152
X072136Y070612
X072136Y068072
X072136Y065532
X072136Y062992
X072136Y060452
X072136Y057912
X072136Y055372
T02
X087884Y015240
X085344Y015240
X097790Y015240
X095250Y015240
M30
