G04 Layer: TopSolderMaskLayer*
G04 EasyEDA v6.4.19.5, 2021-05-20T10:28:44+07:00*
G04 27e653f2f64e4e94b3cc02e3c5d75013,8de9fd2be1ea41df81dd73b3f080cf7e,10*
G04 Gerber Generator version 0.2*
G04 Scale: 100 percent, Rotated: No, Reflected: No *
G04 Dimensions in millimeters *
G04 leading zeros omitted , absolute positions ,4 integer and 5 decimal *
%FSLAX45Y45*%
%MOMM*%

%ADD19C,1.7272*%
%ADD22C,1.7016*%
%ADD24C,1.6256*%

%LPD*%
D19*
X1790700Y7569200D02*
G01*
X1892300Y7569200D01*
X1790700Y7315200D02*
G01*
X1892300Y7315200D01*
X1790700Y7061200D02*
G01*
X1892300Y7061200D01*
X1790700Y6807200D02*
G01*
X1892300Y6807200D01*
X1790700Y6553200D02*
G01*
X1892300Y6553200D01*
X1790700Y6299200D02*
G01*
X1892300Y6299200D01*
X1790700Y6045200D02*
G01*
X1892300Y6045200D01*
X1790700Y5791200D02*
G01*
X1892300Y5791200D01*
X1790700Y5537200D02*
G01*
X1892300Y5537200D01*
X1790700Y5283200D02*
G01*
X1892300Y5283200D01*
X1790700Y5029200D02*
G01*
X1892300Y5029200D01*
X1790700Y4775200D02*
G01*
X1892300Y4775200D01*
X1790700Y4521200D02*
G01*
X1892300Y4521200D01*
X1790700Y4267200D02*
G01*
X1892300Y4267200D01*
X1790700Y4013200D02*
G01*
X1892300Y4013200D01*
X1790700Y3759200D02*
G01*
X1892300Y3759200D01*
X3822700Y3759200D02*
G01*
X3924300Y3759200D01*
X3822700Y4013200D02*
G01*
X3924300Y4013200D01*
X3822700Y4267200D02*
G01*
X3924300Y4267200D01*
X3822700Y4521200D02*
G01*
X3924300Y4521200D01*
X3822700Y4775200D02*
G01*
X3924300Y4775200D01*
X3822700Y5029200D02*
G01*
X3924300Y5029200D01*
X3822700Y5283200D02*
G01*
X3924300Y5283200D01*
X3822700Y5537200D02*
G01*
X3924300Y5537200D01*
X3822700Y5791200D02*
G01*
X3924300Y5791200D01*
X3822700Y6045200D02*
G01*
X3924300Y6045200D01*
X3822700Y6299200D02*
G01*
X3924300Y6299200D01*
X3822700Y6553200D02*
G01*
X3924300Y6553200D01*
G36*
X11119611Y1431289D02*
G01*
X11119611Y1591310D01*
X11629897Y1591310D01*
X11629897Y1431289D01*
G37*
G36*
X11839702Y1431289D02*
G01*
X11839702Y1591310D01*
X12349988Y1591310D01*
X12349988Y1431289D01*
G37*
G36*
X8703309Y1438910D02*
G01*
X8703309Y1609089D01*
X8873490Y1609089D01*
X8873490Y1438910D01*
G37*
D22*
G01*
X8534400Y1524000D03*
G36*
X7830820Y1518920D02*
G01*
X7830820Y1681479D01*
X7993379Y1681479D01*
X7993379Y1518920D01*
G37*
D24*
G01*
X7658100Y1600200D03*
G36*
X9680702Y3560571D02*
G01*
X9680702Y3670807D01*
X9801097Y3670807D01*
X9801097Y3560571D01*
G37*
G36*
X9680702Y3720592D02*
G01*
X9680702Y3830828D01*
X9801097Y3830828D01*
X9801097Y3720592D01*
G37*
G36*
X8715502Y3547871D02*
G01*
X8715502Y3658107D01*
X8835897Y3658107D01*
X8835897Y3547871D01*
G37*
G36*
X8715502Y3707892D02*
G01*
X8715502Y3818128D01*
X8835897Y3818128D01*
X8835897Y3707892D01*
G37*
G36*
X7864602Y3573271D02*
G01*
X7864602Y3683507D01*
X7984997Y3683507D01*
X7984997Y3573271D01*
G37*
G36*
X7864602Y3733292D02*
G01*
X7864602Y3843528D01*
X7984997Y3843528D01*
X7984997Y3733292D01*
G37*
G36*
X12081002Y3547871D02*
G01*
X12081002Y3658107D01*
X12201397Y3658107D01*
X12201397Y3547871D01*
G37*
G36*
X12081002Y3707892D02*
G01*
X12081002Y3818128D01*
X12201397Y3818128D01*
X12201397Y3707892D01*
G37*
G36*
X9693909Y1438910D02*
G01*
X9693909Y1609089D01*
X9864090Y1609089D01*
X9864090Y1438910D01*
G37*
D22*
G01*
X9525000Y1524000D03*
G36*
X7127240Y7228839D02*
G01*
X7127240Y7401560D01*
X7299959Y7401560D01*
X7299959Y7228839D01*
G37*
D19*
G01*
X7213600Y7061200D03*
G01*
X7213600Y6807200D03*
G01*
X7213600Y6553200D03*
G01*
X7213600Y6299200D03*
G01*
X7213600Y6045200D03*
G01*
X7213600Y5791200D03*
G01*
X7213600Y5537200D03*
M02*
